<svg xmlns="http://www.w3.org/2000/svg" width="50.609" height="73.042" viewBox="0 0 50.609 73.042">
  <path id="Caminho_636" data-name="Caminho 636" d="M603.445,336.5c-3.905-10.242-10.256-20.659-22.605-31.241a87.948,87.948,0,0,1,22.206,32.652l-1.963,6.93a12.13,12.13,0,0,1-5.46-6.3,14.916,14.916,0,0,0,4.884,2.938c-1.714-.839-7.618-5.072-8.451-6.958,2.641,2.032,6.246,4.168,9.2,4.363-4.844-1.1-12.071-5.815-13.771-11.259a22.119,22.119,0,0,0,4.264,3.21c-2.717-1.9-5.159-4.508-5.972-6.759a19.261,19.261,0,0,0,3.653,2.116c-1.909-.934-8.357-9.535-8.1-10.867,1.675,2.39,7.929,7.773,11.029,7.15-3.113-1.523-9.712-5.6-11.261-9.347a12.918,12.918,0,0,0,3.936,2.254c-.2-.1-1.149-.727-1.31-.851A19.865,19.865,0,0,1,576.3,302.4c13.225-2.052,17.154,8.6,20.142,14.678.005-2.565-2.4-6.343-2.462-6.74,2.1,2.212,4.526,9.068,4.435,11.378a11.921,11.921,0,0,0-1.635-7.87c2.136,1.4,4.45,4.834,5.912,8.648a3.677,3.677,0,0,0-.445-1.533l.188.143a16.091,16.091,0,0,1,3.3,7.31l-2.291,8.092Zm3.334,10.608a101.047,101.047,0,0,0-3.334-10.608l2.291-8.092a26.816,26.816,0,0,1,.342,10.315c1.184-2,1.145-5.721.434-8.668.014.265,2.44,3.393,2.126,6.631.271-.056.347-1.028.378-1.35.628,2.831.57,4.183.143,5.661a3.3,3.3,0,0,0,.876-1.381,10.314,10.314,0,0,1-1.845,6.771c.609,2.382,1.122,4.643,1.573,6.841q-.817-.473-1.7-.916c-.385-1.7-.824-3.423-1.285-5.207Zm-3.734-9.2-1.963,6.93a14.081,14.081,0,0,0,4.848,1.817,91.919,91.919,0,0,0-2.885-8.748Zm5.019,14.4a58.666,58.666,0,0,1,1.425,12.653c.094.084.182.166.266.247l1.343-4.741c-.333-1.994-.931-5.2-1.333-7.242C609.459,353.066,608.277,352.433,608.064,352.319Zm3.033,8.158c.279,1.674.544,3.348.809,5.049q-.268,1.508-.536,3.016a5.01,5.01,0,0,0-1.616-3.324l1.343-4.741Z" transform="translate(-470.027 -432.587) rotate(14)" fill="#ebd3b5"/>
</svg>
