<svg xmlns="http://www.w3.org/2000/svg" width="179" height="82.771" viewBox="0 0 179 82.771">
  <g id="Grupo_189" data-name="Grupo 189" transform="translate(0.31)">
    <g id="up-arrow" transform="translate(102.225 46.905) rotate(180)">
      <path id="Caminho_640" data-name="Caminho 640" d="M15.726,46.119a1.988,1.988,0,0,1-3.168,0C7.429,37.99,2.752,29.73.036,20.814a1.842,1.842,0,0,1,2.716-1.836A32.757,32.757,0,0,1,10.6,25.665c-.6-18.355-.206-11.519,1.961-24.8.3-1.311,2.866-1.049,2.715.262-.715,14.846-1.056,6.71-.754,25.459,2.565-1.967,5.13-3.933,7.543-5.9,1.056-.918,3.319-.393,3.169,1.18A58.127,58.127,0,0,1,15.726,46.119Zm-1.66-15.6c-.905,1.18-3.47.918-3.47-.918v-.262c-1.81-1.573-3.47-3.147-5.431-4.72a113.045,113.045,0,0,0,8.9,17.307,53.321,53.321,0,0,0,6.487-16c-1.66,1.311-3.47,2.622-5.13,4.064A1.183,1.183,0,0,1,14.067,30.516Z" transform="translate(0 0)" fill="#1e3029"/>
    </g>
  </g>
</svg>
