<svg xmlns="http://www.w3.org/2000/svg" width="85.658" height="24.222" viewBox="0 0 85.658 24.222">
  <g id="up-arrow" transform="translate(85.658) rotate(90)">
    <path id="Caminho_640" data-name="Caminho 640" d="M15.093,84.789a1.765,1.765,0,0,1-3.041,0C7.13,75.812,2.641,66.69.034,56.844c-.29-1.448,1.3-2.9,2.606-2.027A33.1,33.1,0,0,1,10.17,62.2C9.591,41.93,6.84,20.934,11.618.952c.29-1.448,2.751-1.158,2.606.29-2.606,20.706-.579,41.267-.29,61.973,2.462-2.172,4.923-4.344,7.24-6.516A1.782,1.782,0,0,1,24.216,58,70.12,70.12,0,0,1,15.093,84.789ZM13.5,67.559a1.819,1.819,0,0,1-3.33-1.014v-.29c-1.738-1.738-3.33-3.475-5.213-5.213A132.733,132.733,0,0,0,13.5,80.156a64.2,64.2,0,0,0,6.226-17.665c-1.593,1.448-3.33,2.9-4.923,4.489A1.07,1.07,0,0,1,13.5,67.559Z" fill="#fff0de"/>
  </g>
</svg>
