<svg xmlns="http://www.w3.org/2000/svg" width="85.658" height="24.222" viewBox="0 0 85.658 24.222">
  <g id="up-arrow" transform="translate(85.658 -129.832) rotate(90)">
    <path id="Caminho_640" data-name="Caminho 640" d="M144.926.869a1.765,1.765,0,0,0-3.041,0c-4.923,8.977-9.412,18.1-12.018,27.946-.29,1.448,1.3,2.9,2.606,2.027A33.1,33.1,0,0,0,140,23.457c-.579,20.272-3.33,41.267,1.448,61.249.29,1.448,2.751,1.158,2.606-.29-2.606-20.706-.579-41.267-.29-61.973,2.462,2.172,4.923,4.344,7.24,6.516a1.782,1.782,0,0,0,3.041-1.3A70.119,70.119,0,0,0,144.926.869ZM143.333,18.1A1.819,1.819,0,0,0,140,19.113v.29c-1.738,1.738-3.33,3.475-5.213,5.213A132.733,132.733,0,0,1,143.333,5.5a64.2,64.2,0,0,1,6.226,17.665c-1.593-1.448-3.33-2.9-4.923-4.489A1.07,1.07,0,0,0,143.333,18.1Z" transform="translate(0 0)" fill="#fff0de"/>
  </g>
</svg>
