<svg width="100" height="50" xmlns="http://www.w3.org/2000/svg">
 <g>
  <title>Layer 1</title>
  <g id="Grupo_189" data-name="Grupo 189" stroke="null">
   <g id="up-arrow" transform="matrix(-0.88104 0 0 -0.936038 189.588 91.8331)" stroke="null">
    <path id="Caminho_640" data-name="Caminho 640" d="m158.80256,94.11733a1.988,1.988 0 0 1 -3.168,0c-5.129,-8.129 -9.806,-16.389 -12.522,-25.305a1.842,1.842 0 0 1 2.716,-1.836a32.757,32.757 0 0 1 7.848,6.687c-0.6,-18.355 -0.206,-11.519 1.961,-24.8c0.3,-1.311 2.866,-1.049 2.715,0.262c-0.715,14.846 -1.056,6.71 -0.754,25.459c2.565,-1.967 5.13,-3.933 7.543,-5.9c1.056,-0.918 3.319,-0.393 3.169,1.18a58.127,58.127 0 0 1 -9.508,24.253zm-1.66,-15.6c-0.905,1.18 -3.47,0.918 -3.47,-0.918l0,-0.262c-1.81,-1.573 -3.47,-3.147 -5.431,-4.72a113.045,113.045 0 0 0 8.9,17.307a53.321,53.321 0 0 0 6.487,-16c-1.66,1.311 -3.47,2.622 -5.13,4.064a1.183,1.183 0 0 1 -1.355,0.526l-0.001,0.003z" fill="#000" stroke="#fff"/>
   </g>
  </g>
 </g>

</svg>