<svg xmlns="http://www.w3.org/2000/svg" width="34.7" height="23.517" viewBox="0 0 34.7 23.517">
  <g id="email_4_" data-name="email (4)" transform="translate(0.1 0.1)">
    <g id="Grupo_257" data-name="Grupo 257" transform="translate(8.582 0)">
      <g id="Grupo_256" data-name="Grupo 256">
        <path id="Caminho_674" data-name="Caminho 674" d="M128.046,82.979h-.008a.674.674,0,1,0,0,1.348h.008a.674.674,0,0,0,0-1.348Z" transform="translate(-127.364 -82.979)" fill="#28493c" stroke="#28493c" stroke-width="0.2"/>
      </g>
    </g>
    <g id="Grupo_259" data-name="Grupo 259" transform="translate(0 0)">
      <g id="Grupo_258" data-name="Grupo 258">
        <path id="Caminho_675" data-name="Caminho 675" d="M31.8,82.979H12.268a.674.674,0,1,0,0,1.348H31.8c.035,0,.069,0,.1.005l-1.883,1.883h-8.79a.674.674,0,1,0,0,1.348h7.442l-9.392,9.392a2.881,2.881,0,0,1-4.07,0L2.592,84.332c.034,0,.069-.005.1-.005H6.267a.674.674,0,0,0,0-1.348H2.7a2.7,2.7,0,0,0-2.7,2.7V103.6a2.7,2.7,0,0,0,2.7,2.7H31.8a2.7,2.7,0,0,0,2.7-2.7V85.674A2.7,2.7,0,0,0,31.8,82.979ZM1.348,103.6V85.674a1.337,1.337,0,0,1,.123-.558l9.378,9.378-9.454,9.454A1.342,1.342,0,0,1,1.348,103.6ZM31.8,104.949H2.7a1.342,1.342,0,0,1-.348-.047L11.8,95.448l2.46,2.46a4.231,4.231,0,0,0,5.976,0l2.46-2.46,9.454,9.454A1.342,1.342,0,0,1,31.8,104.949Zm1.348-1.348a1.342,1.342,0,0,1-.047.348l-9.454-9.454,9.378-9.379a1.337,1.337,0,0,1,.123.558Z" transform="translate(0 -82.979)" fill="#28493c" stroke="#28493c" stroke-width="0.2"/>
      </g>
    </g>
    <g id="Grupo_261" data-name="Grupo 261" transform="translate(17.732 3.236)">
      <g id="Grupo_260" data-name="Grupo 260">
        <path id="Caminho_676" data-name="Caminho 676" d="M263.834,131h-.01a.674.674,0,0,0,0,1.348h.01a.674.674,0,0,0,0-1.348Z" transform="translate(-263.15 -131)" fill="#28493c" stroke="#28493c" stroke-width="0.2"/>
      </g>
    </g>
  </g>
</svg>
