<svg xmlns="http://www.w3.org/2000/svg" width="25.077" height="33.872" viewBox="0 0 25.077 33.872">
  <g id="pin" transform="translate(0.1 0.1)">
    <g id="Grupo_263" data-name="Grupo 263" transform="translate(0)">
      <g id="Grupo_262" data-name="Grupo 262" transform="translate(0)">
        <path id="Caminho_677" data-name="Caminho 677" d="M60.518,0A12.452,12.452,0,0,0,48.08,12.438a14.351,14.351,0,0,0,1.055,4.789,20.058,20.058,0,0,0,1.438,2.689L59.1,32.838a1.622,1.622,0,0,0,2.835,0l8.529-12.923A19.976,19.976,0,0,0,71.9,17.227a14.347,14.347,0,0,0,1.054-4.789A12.452,12.452,0,0,0,60.518,0ZM70.553,16.659a18.38,18.38,0,0,1-1.31,2.451L60.714,32.033c-.168.255-.222.255-.39,0L51.795,19.111a18.388,18.388,0,0,1-1.31-2.452,13.027,13.027,0,0,1-.941-4.22,10.975,10.975,0,1,1,21.95,0A13.037,13.037,0,0,1,70.553,16.659Z" transform="translate(-48.08 0)" fill="#28493c" stroke="#28493c" stroke-width="0.2"/>
        <path id="Caminho_678" data-name="Caminho 678" d="M118.5,64.008a6.784,6.784,0,1,0,6.417,6.774A6.61,6.61,0,0,0,118.5,64.008Zm0,12.043a5.276,5.276,0,1,1,4.991-5.269A5.142,5.142,0,0,1,118.5,76.051Z" transform="translate(-106.059 -58.262)" fill="#28493c" stroke="#28493c" stroke-width="0.2"/>
      </g>
    </g>
  </g>
</svg>
